<?xml version="1.0" encoding="UTF-8"?>
<!DOCTYPE svg PUBLIC "-//W3C//DTD SVG 1.1//EN" "http://www.w3.org/Graphics/SVG/1.1/DTD/svg11.dtd">
<!-- Creator: CorelDRAW -->
<svg xmlns="http://www.w3.org/2000/svg" xml:space="preserve" width="118.501mm" height="118.501mm" version="1.1" style="shape-rendering:geometricPrecision; text-rendering:geometricPrecision; image-rendering:optimizeQuality; fill-rule:evenodd; clip-rule:evenodd"
viewBox="0 0 154.26 154.26"
 xmlns:xlink="http://www.w3.org/1999/xlink"
 xmlns:xodm="http://www.corel.com/coreldraw/odm/2003">
 <defs>
  <style type="text/css">
   <![CDATA[
    .fil1 {fill:#FEFEFE}
    .fil0 {fill:#0068CE}
   ]]>
  </style>
 </defs>
 <g id="Layer_x0020_1">
  <metadata id="CorelCorpID_0Corel-Layer"/>
  <circle class="fil0" cx="77.13" cy="77.13" r="77.13"/>
  <g id="_2488085172160">
   <g>
    <path class="fil1" d="M17.74 111.45c1.99,0.73 15.2,0.32 18.55,0.32 7.47,0 10.47,0.85 15.94,-2.9 1.77,-1.22 10.44,-12.99 12.36,-15.77 1.12,-1.62 3.08,-3.73 3.91,-5.4l-5.99 0 -7.31 9.93c-1.19,1.62 -2.14,3.47 -4.79,3.85 -3.96,0.57 -22.12,-0.66 -25.76,0.21 -2.14,0.52 -3.05,2.82 -4.32,4.32 -1.84,2.16 -3.27,3.65 -2.6,5.45z"/>
    <path class="fil1" d="M72.47 74.68l6.02 0.01 25.38 -34.09c0.67,-0.87 1.29,-1.33 1.3,-2.75 -1.06,-0.91 -2.38,-1.99 -3.72,-2.05 -0.97,1.05 -2.53,3.31 -3.53,4.73l-18.28 24.35c-1.13,1.63 -6.83,8.87 -7.16,9.8z"/>
    <path class="fil1" d="M64.17 85.74c4.54,0.06 5.56,0.59 7.1,-1.41 0.54,-0.7 1.08,-1.35 1.37,-2.12 -1.28,-0.06 -4.9,-0.31 -5.85,0.14 -0.51,0.24 -2.41,2.86 -2.63,3.39z"/>
    <path class="fil1" d="M68.32 80.25l6.02 -0.02c0.7,-1.33 1.9,-2.23 2.41,-3.61l-5.85 0.02c-0.65,0.84 -2.04,2.5 -2.57,3.62z"/>
   </g>
   <g>
    <path class="fil1" d="M136.52 111.45c-1.99,0.73 -15.2,0.32 -18.55,0.32 -7.47,0 -10.47,0.85 -15.94,-2.9 -1.77,-1.22 -10.44,-12.99 -12.36,-15.77 -1.12,-1.62 -3.08,-3.73 -3.91,-5.4l5.99 0 7.31 9.93c1.19,1.62 2.14,3.47 4.79,3.85 3.96,0.57 22.12,-0.66 25.76,0.21 2.14,0.52 3.05,2.82 4.32,4.32 1.84,2.16 3.27,3.65 2.6,5.45z"/>
    <path class="fil1" d="M81.78 74.68l-6.02 0.01 -25.38 -34.09c-0.67,-0.87 -1.29,-1.33 -1.3,-2.75 1.06,-0.91 2.38,-1.99 3.72,-2.05 0.97,1.05 2.53,3.31 3.53,4.73l18.28 24.35c1.13,1.63 6.83,8.87 7.16,9.8z"/>
    <path class="fil1" d="M90.09 85.74c-4.54,0.06 -5.56,0.59 -7.1,-1.41 -0.54,-0.7 -1.08,-1.35 -1.37,-2.12 1.28,-0.06 4.9,-0.31 5.85,0.14 0.51,0.24 2.41,2.86 2.63,3.39z"/>
    <path class="fil1" d="M85.94 80.25l-6.02 -0.02c-0.7,-1.33 -1.9,-2.23 -2.41,-3.61l5.85 0.02c0.65,0.84 2.04,2.5 2.57,3.62z"/>
   </g>
  </g>
 </g>
</svg>
