<?xml version="1.0" encoding="UTF-8"?>
<svg id="Layer_2" data-name="Layer 2" xmlns="http://www.w3.org/2000/svg" viewBox="0 0 841.16 124.7">
  <defs>
    <style>
      .cls-1 {
        fill: #eaff00;
      }

      .cls-2, .cls-3 {
        fill: #0068d2;
      }

      .cls-3 {
        fill-rule: evenodd;
      }
    </style>
  </defs>
  <g id="Layer_1-2" data-name="Layer 1">
    <path class="cls-3" d="M808.38,39.76c15.8-.54,27.23-1.35,32.78,3.56-.93,1.55-4.62,4.71-9.81,8.69l-66.81,4.99,55.81,3.13c-15.47,11.11-34.96,24.18-41.83,29.04-4.68,3.31-8.72,6.3-12.42,9.03l-48.7,3.64,40.56,2.27c-12.48,8.76-23.24,14.26-47.17,18.68-9,1.66-61.35,1.86-92.39,1.69l-.41.23H1.93c-1.46,0-2.27-.91-1.8-2.03l4.53-10.65c.47-1.11,2.06-2.03,3.52-2.03,214.39,0,428.8-1.05,643.18-.41,11.19.05,22.53,1.09,33.33-4.68,6.82-3.65,20.99-14.06,36.31-25.41l60.89-3.41-51.14-3.82c17.99-13.31,35.79-26.26,43.79-29.81,9.65-4.29,22.87-2.32,33.82-2.7"/>
    <path class="cls-2" d="M96.29.03h-44.34c-8.52,0-15.99,5.02-19.37,12.37v.12l-1.63,5.02q-.12.12-.12.24l-4.2,13.07c-1.87,5.84-.7,10.5,3.73,14.12l22.52,18.67,6.54,5.37c2.21,1.75,3.38,2.68,2.33,5.6l-1.05,2.92c-.82,3.04-2.92,4.55-6.54,4.55h-15.99l.58-1.52,4.67-14.59H15.3l-5.95,18.67c-.35.82-.58,1.63-.82,2.45-.12.82-.23,1.64-.23,2.57,0,7.12,5.72,12.84,12.84,12.84h44.23c8.87,0,16.33-5.25,19.72-12.84.24-.58,5.72-17.97,5.72-17.97,1.87-5.72.7-10.5-3.62-14.12l-22.75-18.67-6.42-5.25c-2.1-1.86-3.15-2.8-2.34-5.72l1.05-3.04c.82-2.92,3.15-4.43,6.77-4.43h10.38c3.5,0,4.9,1.52,3.85,4.43l-3.73,11.79h28.12l5.95-18.9c.35-.7.58-1.52.82-2.33.12-.82.23-1.63.23-2.57C109.13,5.75,103.29.03,96.29.03"/>
    <path class="cls-2" d="M176.45,64.91l-5.37-12.72-25.56,13.07,1.52,4.2c1.05,2.45,1.05,5.14,0,8.05l-7.94,24.97h28.12l9.33-29.29c1.05-2.92.94-5.72-.12-8.29h0ZM172.14.03l-6.3,21.47c-.82,2.92-2.1,6.07-5.14,8.29l-24.62,15.87,1.05-2.8L150.9.03h-28.12l-32.91,102.46h28.12l8.75-26.72,6.77-4.32,1.16-.82,34.43-23.22,18.32-12.37c2.8-2.21,4.32-5.13,5.14-7.94L200.14.03h-28.01,0Z"/>
    <path class="cls-1" d="M208.89,0l-8.4,26.14L236.43,1.98,237.02,0h-28.12,0Z"/>
    <path class="cls-2" d="M249.04,82.06l.47-1.52L275.41.03h-28.12l-32.91,102.46h59.63l6.77-20.42s-31.74,0-31.74,0Z"/>
    <path class="cls-2" d="M310.77.03l-26.02,80.87,29.41-4.32L338.78.03h-28.01ZM284.28,82.06l-6.54,20.42h59.75l6.65-20.42h-59.86Z"/>
    <path class="cls-2" d="M374.02.03l-6.65,20.42h41.54l-51.58,51.11,35.01-2.45,48.9-48.66L447.77.03s-73.75,0-73.75,0ZM347.53,82.06l-6.53,20.42h73.87l6.54-20.42h-73.87,0Z"/>
    <path class="cls-2" d="M597.14.03l-16.22,50.76L576.48.03h-29.76l-32.91,102.46h28.01l14.7-45.51,1.98-6.77,4.55,52.28h29.29L625.26.03h-28.12Z"/>
    <path class="cls-2" d="M657.12,20.45h31.62L695.39.02h-59.86l-32.91,102.46h59.63l6.77-20.42h-31.63l.35-1.52,4.9-15.29,25.67-6.65,7.11-21.59-25.55,6.65.35-1.52,6.88-21.71h0Z"/>
    <path class="cls-2" d="M534.01,12.87c0,.93-.12,1.75-.23,2.57-.24.82-.47,1.63-.82,2.33,0,0-20.9,64.67-23.36,72-2.6,7.78-10.85,12.72-19.6,12.72h-50.86c-7.12,0-12.84-5.72-12.84-12.84,0-.93.12-1.75.23-2.57.23-.82.47-1.63.82-2.45l.82-2.56h42.59c10.74,0,23.85-27.25,28.19-45.17,3.08-12.73.87-16.45-6.37-16.45h-6.88c-7.12,0-11.67,7-13.07,11.09-1.05,3.03-4.48,15.62-8.64,37.69l-32.44,1.17,17.39-53.09.12-.12c.12-.47.12-.93.35-1.28C451.86,6.68,460.26.03,470.06.03h51.11c7.12,0,12.84,5.72,12.84,12.84"/>
    <path class="cls-2" d="M196.29,39.21l-20.3,63.25h28.12l25.79-80.52-33.61,17.27h0Z"/>
    <path class="cls-3" d="M719.92,27.55c-1.72.17-3.26.42-4.86.71-5.12.92-10.34,2.47-14.41,5.4l-1.71,1.12c-1.71,1.16-3.73,4.76-3.92,7.43-.14,1.99.29,3,1.11,4.46,1.45,2.56,3.46,4.15,5.99,5.61,12.13,6.98,34.27,7.04,46.02.2,9.15-5.33,9.52-13.62,1.3-19.09-.06-.04-.14-.09-.21-.13s-.15-.09-.21-.13c-.06-.04-.15-.1-.21-.14-1.87-1.22-3.67-1.93-5.56-2.67l-12.38-2.7c-3.26-.42-7.67-.41-10.97-.07"/>
    <path class="cls-3" d="M695.02,56.17c0,3.33-.19,5.92,1.81,8.62l.92,1.08c.32.36.41.49.79.87.92.92,2.4,1.97,3.32,2.57,1.01.66,2.41,1.32,3.78,2,13.6,6.68,39.96,4.95,47.87-6.59,2.45-3.58,1.68-9.47,1.64-14.88l-8.39,6.64c-9.3,4.48-20.7,5.21-30.98,3.54l-13.26-4.38c-6.42-3.58-5.08-4.29-7.49-5.98v6.5s0,0,0,0Z"/>
  </g>
</svg>