<?xml version="1.0" encoding="UTF-8" standalone="no"?><!DOCTYPE svg PUBLIC "-//W3C//DTD SVG 1.1//EN" "http://www.w3.org/Graphics/SVG/1.1/DTD/svg11.dtd"><svg width="100%" height="100%" viewBox="0 0 512 76" version="1.1" xmlns="http://www.w3.org/2000/svg" xmlns:xlink="http://www.w3.org/1999/xlink" xml:space="preserve" xmlns:serif="http://www.serif.com/" style="fill-rule:evenodd;clip-rule:evenodd;stroke-linejoin:round;stroke-miterlimit:2;"><path d="M491.618,24.179c9.607,-0.329 16.562,-0.822 19.936,2.166c-0.567,0.945 -2.812,2.862 -5.966,5.282l-40.63,3.034l33.944,1.901c-9.41,6.758 -21.26,14.708 -25.439,17.661c-2.844,2.01 -5.304,3.833 -7.556,5.493l-29.617,2.212l24.664,1.381c-7.591,5.328 -14.133,8.671 -28.687,11.362c-5.473,1.012 -37.31,1.13 -56.187,1.026l-0.252,0.14l-374.653,0c-0.89,0 -1.381,-0.554 -1.093,-1.232l2.753,-6.476c0.288,-0.678 1.251,-1.232 2.14,-1.232c130.384,0 260.775,-0.641 391.155,-0.25c6.805,0.03 13.702,0.665 20.272,-2.848c4.149,-2.219 12.765,-8.549 22.084,-15.455l37.03,-2.074l-31.099,-2.322c10.94,-8.096 21.765,-15.968 26.632,-18.132c5.87,-2.61 13.911,-1.41 20.567,-1.639" style="fill:#fff;"/><path d="M58.556,0.017l-26.967,0c-5.181,0 -9.722,3.05 -11.782,7.524l0,0.07l-0.993,3.051c-0.071,0.071 -0.071,0.071 -0.071,0.143l-2.554,7.948c-1.136,3.549 -0.426,6.387 2.27,8.587l13.698,11.355l3.975,3.264c1.347,1.065 2.058,1.632 1.418,3.408l-0.637,1.773c-0.499,1.846 -1.776,2.768 -3.975,2.768l-9.723,0l0.355,-0.922l2.839,-8.872l-17.103,0l-3.62,11.355c-0.214,0.496 -0.355,0.993 -0.498,1.489c-0.071,0.499 -0.141,0.995 -0.141,1.562c0,4.33 3.478,7.808 7.806,7.808l26.899,0c5.393,0 9.934,-3.193 11.992,-7.808c0.144,-0.355 3.479,-10.929 3.479,-10.929c1.136,-3.476 0.426,-6.386 -2.202,-8.587l-13.838,-11.355l-3.902,-3.194c-1.279,-1.134 -1.917,-1.702 -1.421,-3.476l0.64,-1.846c0.496,-1.774 1.914,-2.695 4.116,-2.695l6.315,0c2.131,0 2.983,0.922 2.343,2.695l-2.269,7.168l17.103,0l3.62,-11.496c0.212,-0.426 0.355,-0.924 0.497,-1.42c0.071,-0.497 0.141,-0.992 0.141,-1.562c0,-4.327 -3.549,-7.806 -7.806,-7.806" style="fill:#fff;fill-rule:nonzero;"/><path d="M107.311,39.475l-3.264,-7.736l-15.542,7.949l0.922,2.554c0.64,1.491 0.64,3.123 0,4.897l-4.826,15.186l17.103,0l5.677,-17.811c0.639,-1.776 0.569,-3.479 -0.071,-5.04Zm-2.625,-39.458l-3.833,13.058c-0.496,1.773 -1.277,3.69 -3.124,5.04l-14.975,9.65l0.64,-1.703l8.375,-26.045l-17.103,0l-20.015,62.31l17.103,0l5.323,-16.252l4.118,-2.625l0.708,-0.496l20.936,-14.123l11.141,-7.524c1.705,-1.347 2.627,-3.121 3.123,-4.826l4.615,-16.464l-17.033,0Z" style="fill:#fff;fill-rule:nonzero;"/><path d="M127.04,-0l-5.111,15.896l21.859,-14.69l0.355,-1.206l-17.103,-0Z" style="fill:#eaff00;fill-rule:nonzero;"/><path d="M151.453,49.907l0.284,-0.922l15.753,-48.969l-17.103,0l-20.012,62.311l36.264,0l4.116,-12.42l-19.302,0Z" style="fill:#fff;fill-rule:nonzero;"/><path d="M188.995,0.017l-15.825,49.181l17.884,-2.625l14.974,-46.555l-17.033,0Zm-16.11,49.89l-3.975,12.42l36.337,0l4.045,-12.42l-36.407,0Z" style="fill:#fff;fill-rule:nonzero;"/><path d="M227.461,0.017l-4.045,12.42l25.264,0l-31.368,31.083l21.289,-1.489l29.738,-29.594l3.975,-12.42l-44.853,0Zm-16.111,49.89l-3.973,12.42l44.922,0l3.975,-12.42l-44.924,0Z" style="fill:#fff;fill-rule:nonzero;"/><path d="M363.152,0.017l-9.864,30.871l-2.697,-30.871l-18.098,0l-20.012,62.311l17.032,0l8.942,-27.679l1.207,-4.116l2.768,31.795l17.813,0l20.013,-62.311l-17.103,0Z" style="fill:#fff;fill-rule:nonzero;"/><path d="M399.63,12.436l19.231,0l4.045,-12.421l-36.405,0l-20.015,62.312l36.266,0l4.116,-12.42l-19.234,0l0.215,-0.922l2.98,-9.296l15.614,-4.045l4.327,-13.128l-15.541,4.045l0.214,-0.922l4.187,-13.201Z" style="fill:#fff;fill-rule:nonzero;"/><path d="M324.758,7.824c0,0.567 -0.07,1.065 -0.141,1.561c-0.143,0.496 -0.285,0.993 -0.498,1.419c0,0 -12.711,39.332 -14.205,43.787c-1.584,4.729 -6.599,7.736 -11.921,7.736l-30.93,0c-4.33,0 -7.806,-3.476 -7.806,-7.806c0,-0.567 0.071,-1.066 0.141,-1.562c0.141,-0.496 0.285,-0.992 0.496,-1.491l0.496,-1.559l25.904,0c6.529,0 14.507,-16.574 17.143,-27.47c1.875,-7.744 0.529,-10.004 -3.871,-10.004l-4.187,0c-4.33,0 -7.098,4.259 -7.949,6.743c-0.64,1.844 -2.724,9.502 -5.252,22.921l-19.729,0.71l10.576,-32.289l0.071,-0.073c0.071,-0.283 0.071,-0.567 0.212,-0.779c1.491,-5.606 6.599,-9.652 12.561,-9.652l31.085,0c4.328,0 7.806,3.476 7.806,7.806" style="fill:#fff;fill-rule:nonzero;"/><path d="M119.375,23.845l-12.347,38.466l17.103,0l15.683,-48.969l-20.438,10.504Z" style="fill:#fff;fill-rule:nonzero;"/><path d="M437.823,16.754c-1.048,0.106 -1.982,0.257 -2.954,0.433c-3.116,0.561 -6.288,1.5 -8.762,3.284l-1.037,0.681c-1.039,0.706 -2.269,2.893 -2.381,4.519c-0.084,1.213 0.178,1.827 0.678,2.711c0.883,1.558 2.106,2.526 3.645,3.412c7.379,4.246 20.843,4.28 27.986,0.121c5.565,-3.24 5.789,-8.283 0.792,-11.607c-0.036,-0.024 -0.088,-0.055 -0.125,-0.079c-0.037,-0.024 -0.089,-0.056 -0.126,-0.081c-0.039,-0.025 -0.089,-0.058 -0.128,-0.083c-1.139,-0.741 -2.229,-1.172 -3.384,-1.624l-7.531,-1.642c-1.984,-0.257 -4.662,-0.247 -6.673,-0.044" style="fill:#fff;"/><path d="M422.681,34.162c-0,2.024 -0.116,3.598 1.099,5.243l0.557,0.659c0.197,0.22 0.247,0.296 0.481,0.529c0.561,0.559 1.46,1.198 2.02,1.563c0.613,0.399 1.464,0.805 2.301,1.216c8.271,4.06 24.301,3.01 29.112,-4.008c1.491,-2.175 1.02,-5.759 1,-9.049l-5.104,4.041c-5.658,2.727 -12.59,3.166 -18.842,2.155l-8.067,-2.664c-3.902,-2.179 -3.088,-2.612 -4.555,-3.638l-0.003,3.953Z" style="fill:#fff;"/></svg>